<?xml version="1.0" encoding="UTF-8"?><svg id="Layer_2" xmlns="http://www.w3.org/2000/svg" viewBox="0 0 275.55 65.74"><defs><style>.cls-1{fill:#7f7f7f;}</style></defs><g id="_레이어_1"><g><path class="cls-1" d="M82.47,34.88c0-.62,.11-1.08,.37-1.5l3.77-6.17c.23-.5,.86-.38,1.3-.39v9.73c-.41-.04-5.15,.09-5.37-.08-.09,0-.07-1.37-.07-1.59m5.42,4.78v3.43h3.64v-3.43h2.2l.88-3.1h-3.08v-12.97h-3.62c-1.92,0-3.06,.56-3.92,1.91l-3.98,6.22c-1.26,1.82-1.22,3.16-1.18,5.17,0,1.27,.53,2.78,3.06,2.78h6Z"/><rect class="cls-1" x="95.41" y="39.16" width="3.86" height="3.78"/><polygon class="cls-1" points="102.38 42.95 106.26 42.95 106.26 23.58 99.37 23.61 99.37 26.7 102.38 26.7 102.38 42.95"/><path class="cls-1" d="M116.4,40.11c-2.28,0-3.37-.53-3.37-3.51-.13-1.59,.64-3.24,2.95-3.27,2.45,0,3.32,.88,3.32,3.34s-.89,3.44-2.9,3.44m0-9.89c-1.23,0-2.45,.39-3.37,1.05,.05-1.68-.49-4.37,3.41-4.54h4.51l.84-3.12c-6,.14-12.67-1.48-12.51,7.65,.03,6.09-1.06,11.9,7.18,11.84,4.25,0,6.59-2.31,6.59-6.52s-2.3-6.35-6.66-6.35"/><rect class="cls-1" x="141.31" y="22.1" width="3.57" height="16.47"/><g><path class="cls-1" d="M132.37,35.63h-3.72l-.32,4.29c-.11,1.5,.14,2.53,.79,3.23,.68,.73,1.77,1.07,3.41,1.07h12.45l.6-3.1c-.42-.08-13.44,.17-13.45-.18-.15-.17-.1-.86-.07-1.2l.3-4.11Z"/><path class="cls-1" d="M129.77,25.84h4.88c.21,1.46,.25,3.67,.07,4.92-.08,.56-.27,.8-1.18,.8h-3.77v-5.72Zm-3.57,8.8h7.79c1.66,0,3.9-.33,4.25-3.13,.31-2.41,.08-6.2-.55-8.77h-11.49v11.91Z"/><path class="cls-1" d="M149.58,33.58c3.6-.33,6.71-1.27,9-2.73l6.62,2.78,1.74-2.96-5.66-2.16c1.36-1.64,2.09-3.74,2.23-5.97h-14.01v3.1h9.52c-1.35,3.23-6.63,4.65-10.88,4.88l1.05,3.11,.41-.04Z"/></g><polygon class="cls-1" points="147.37 37.42 155.73 37.42 155.73 44.72 159.35 44.72 159.35 37.42 167.38 37.42 168 34.15 147.37 34.15 147.37 37.42"/><rect class="cls-1" x="184.53" y="22.1" width="3.65" height="22.19"/><path class="cls-1" d="M169.36,36.89l-.44,.33c.76,.9,1.51,1.7,2.27,2.62,2.36-1.71,4.21-3.81,5.3-6.18l5.07,5.48,2.56-2.76-6.49-6.3c.46-2.11,.44-5.12,.43-7.45h-3.62c.11,5.79,.1,10.58-5.07,14.25"/><path class="cls-1" d="M197.31,35.63h-3.72l-.32,4.29c-.11,1.5,.14,2.53,.79,3.23,.68,.73,1.77,1.07,3.41,1.07h12.45l.6-3.1c-.42-.08-13.44,.17-13.45-.18-.15-.17,.23-5.31,.23-5.31"/><path class="cls-1" d="M194.71,31.56v-5.72h4.88c.21,1.46,.25,3.67,.07,4.92-.08,.56-.27,.8-1.19,.8h-3.77Zm8.47-.05c.31-2.41,.08-6.2-.55-8.77h-11.5v11.9h7.79c1.66,0,3.9-.33,4.25-3.13"/><rect class="cls-1" x="206.24" y="22.1" width="3.57" height="16.47"/><g><path class="cls-1" d="M213.77,25.84h13.41c.43,3.39-.15,7.15-1.58,10.11l3.31,1.03c2.01-3.39,2.68-9.82,1.63-14.36h-16.77v3.22Z"/><path class="cls-1" d="M232.24,41.46c.22-1.04,.42-2.04,.59-3.13h-7.51v-7.63h-3.62v7.63h-1.4v-7.63h-3.62v7.63h-4.45v3.24h19.56l.44-.11Z"/><path class="cls-1" d="M243.67,25.21c5.38-.09,5.38,3.51,0,3.42-5.36,.09-5.36-3.51,0-3.42m-.03,6.42c5.62,0,8.14-2.34,8.14-4.67,0-2.93-3.19-4.82-8.14-4.82-6.01,0-8.14,2.6-8.14,4.82s2.13,4.67,8.14,4.67"/><path class="cls-1" d="M242.12,35.56h2.95l-.06,1.26h-2.95l.05-1.26Zm-7.39,1.26v3.22h12.47c.55,0,.91,.09,1.07,.28,.17,.18,.22,.56,.16,1.15l-.36,3.39h3.69c.3-3.4,1.77-7.84-3.13-8.02l.05-1.28h4.76l.62-3.27h-20.6v3.27h5.04l-.06,1.26h-3.72Z"/></g><polygon class="cls-1" points="271.23 22.1 271.23 34.79 266.33 34.79 266.33 37.92 271.23 37.92 271.23 39.8 274.8 39.8 274.8 22.1 271.23 22.1"/><g><path class="cls-1" d="M262.96,24.49c3.74-.09,3.74,3.46,0,3.37-3.71,.1-3.71-3.46,0-3.37m-.05,6.06c8.49,.13,8.38-8.97,0-8.86-8.41-.15-8.46,9,0,8.86"/><path class="cls-1" d="M262.07,41.31c-.88,0-1.28,0-1.11-1.2l.38-3.97h-3.67c-.07,1.79-1.08,6.1,.26,7.29,.66,.73,1.74,1.04,3.6,1.04h13.39l.63-3.15h-13.48Z"/></g><polygon class="cls-1" points="261.81 38.9 265.36 38.9 265.36 34.55 270.43 34.55 271.05 31.35 255.2 31.35 255.2 34.55 261.81 34.55 261.81 38.9"/><path class="cls-1" d="M83.74,60.84h-2.7l2.7-3.17v3.17Zm.77-4.09h-.97l-3.44,4.05-.04,.05,.12,.75h3.57v1.32h.77v-1.32h.74v-.77h-.74v-4.09Z"/><path class="cls-1" d="M85.61,62.52c0,.65,.97,.64,.97,0s-.97-.64-.97,0"/><polygon class="cls-1" points="88.69 56.75 86.94 56.75 86.94 57.46 87.93 57.46 87.93 62.22 86.94 62.22 86.94 62.93 89.68 62.93 89.68 62.22 88.69 62.22 88.69 56.75"/><path class="cls-1" d="M92.79,62.25c-2.24,.08-2.3-2.46,0-2.47,.68,0,1.69,.33,1.69,1.25,0,1.13-1.3,1.22-1.7,1.22m0-3.19c-.5,0-1.18,.06-1.72,.57v-1.18c0-1.39,3.31-1.48,3.27,.02h.76c.16-2.28-4.78-2.49-4.79-.02v2.57c-.02,2.66,4.94,2.68,4.92,.02,0-1.46-1.32-1.97-2.45-1.97"/><rect class="cls-1" x="98.29" y="56.75" width=".76" height="6.18"/><g><path class="cls-1" d="M101.98,58.4c-.53,0-.99,.19-1.31,.51v-.44h-.72v4.46h.72v-2.46c0-.78,.56-1.36,1.32-1.36,.81,0,1.3,.46,1.3,1.28v2.54h.72v-2.54c0-1.21-.8-1.99-2.03-1.99"/><path class="cls-1" d="M106.61,60.33c-.67-.09-1.57-.32-1.1-.94,.55-.45,1.73-.39,2.27,.21l.46-.49c-.84-1.01-3.52-1.04-3.56,.61,0,.98,.97,1.14,1.74,1.27,.74,.12,1.23,.23,1.22,.66-.02,.58-.8,.64-1.13,.64-.67,0-1.2-.29-1.49-.78l-.53,.47c.59,1.37,3.91,1.4,3.87-.29,.05-1.06-1.03-1.24-1.74-1.36"/><path class="cls-1" d="M111.39,62.14c-.61,.28-1.23,.25-1.17-.65v-2.36h1.41v-.66h-1.41v-1.26l-.72,.07v1.19h-.88v.66h.88v2.36c-.08,1.47,1.23,1.82,2.3,1.2l-.26-.62-.15,.07Z"/></g><rect class="cls-1" x="112.25" y="58.46" width=".72" height="4.47"/><g><path class="cls-1" d="M112.13,57.28c0,.64,.97,.64,.97,0,0-.64-.97-.64-.97,0"/><path class="cls-1" d="M116.27,62.14c-.61,.28-1.23,.25-1.17-.65v-2.36h1.41v-.66h-1.41v-1.26l-.72,.07v1.19h-.88v.66h.88v2.36c-.08,1.47,1.23,1.82,2.3,1.2l-.26-.62-.15,.07Z"/><path class="cls-1" d="M120.46,60.93c.08,1.22-1.49,1.76-2.28,1.01-.57-.4-.26-2.68-.33-3.48h-.72v2.54c-.14,1.75,2.15,2.6,3.34,1.47v.45h.72v-4.46h-.72v2.46Z"/><path class="cls-1" d="M124.39,62.14c-.61,.28-1.23,.25-1.18-.65v-2.36h1.41v-.66h-1.41v-1.26l-.72,.07v1.19h-.88v.66h.88v2.36c-.08,1.47,1.23,1.82,2.3,1.2l-.26-.62-.15,.07Z"/><path class="cls-1" d="M125.78,60.38c.21-1.69,2.94-1.7,3.02,0h-3.02Zm1.5-1.97c-1.29,0-2.26,.99-2.26,2.29-.12,2.35,3.07,3.06,4.26,1.31l-.54-.43c-.66,1.01-2.72,.98-2.97-.53h3.69c.23-1.5-.66-2.66-2.19-2.64"/><path class="cls-1" d="M135.48,62.3c-3.24,0-3.03-5.06,0-4.9,3.17,0,3.16,4.88,0,4.9m0-5.64c-4.19,0-4.17,6.34,0,6.37,4.3,0,3.96-6.55,0-6.37"/><path class="cls-1" d="M141.08,57.41c.23,0,.46,.12,.69,.26l.36-.55c-1.14-.94-2.61-.2-2.43,1.38h-.85v.67h.85v3.74h.71v-3.74h1.36v-.67h-1.36v-.21c0-.79,.38-.89,.66-.89"/><path class="cls-1" d="M148.63,61.53c-.65,.79-2.13,.65-3.09,.65v-4.69h1.38c2.39-.02,3,2.65,1.71,4.03m-1.71-4.78h-2.14v6.18h2.14c3.95,.19,4.35-6.2,0-6.18"/><path class="cls-1" d="M151.37,60.38c.21-1.69,2.94-1.7,3.02,0h-3.02Zm1.51-1.97c-1.29,0-2.26,.99-2.26,2.29-.12,2.35,3.07,3.06,4.26,1.31l-.54-.43c-.66,1.01-2.72,.98-2.97-.53h3.69c.23-1.5-.66-2.66-2.19-2.64"/><path class="cls-1" d="M160.72,58.39c-.64,0-1.21,.31-1.53,.81-.45-.89-2.03-1.1-2.74-.35v-.38h-.7v4.45h.72v-2.61c0-.72,.48-1.22,1.17-1.22s1.17,.5,1.17,1.22v2.61h.73v-2.61c0-.72,.48-1.23,1.17-1.23s1.17,.48,1.17,1.2v2.64h.72v-2.64c0-1.12-.78-1.9-1.89-1.9"/><path class="cls-1" d="M165.52,62.27c-2.07,.06-2.01-3.22,0-3.17,2.01-.05,2.07,3.23,0,3.17m0-3.87c-2.97-.03-3.02,4.64,0,4.59,3.02,.05,2.97-4.62,0-4.59"/><path class="cls-1" d="M171.58,59.58l.11,.11,.49-.48c-1.33-1.54-4.13-.64-4.02,1.49-.1,2.11,2.7,3.04,4.01,1.49l-.5-.5c-.82,.97-2.79,.74-2.8-1,0-1.68,1.89-1.92,2.7-1.12"/><path class="cls-1" d="M174.62,58.43c-.51,0-.97,.16-1.28,.46v-.42h-.7v4.45h.73v-2.57c-.03-1.01,1.2-1.59,1.97-.97l.34-.61c-.31-.21-.68-.35-1.05-.35"/><path class="cls-1" d="M177.96,62.28c-2.02,.04-2.03-3.19,0-3.15,2.1,.02,2.1,3.13,0,3.15m1.54-3.23c-1.31-1.39-3.9-.32-3.8,1.65-.1,1.98,2.47,3.06,3.8,1.65v.58h.72v-4.45h-.72v.58Z"/><path class="cls-1" d="M183.28,62.14c-.61,.28-1.23,.25-1.17-.65v-2.36h1.41v-.66h-1.41v-1.26l-.72,.07v1.19h-.88v.66h.88v2.36c-.08,1.47,1.24,1.82,2.3,1.2l-.26-.62-.15,.07Z"/><path class="cls-1" d="M184.03,57.28c0,.64,.97,.64,.98,0,0-.64-.98-.64-.98,0"/></g><rect class="cls-1" x="184.14" y="58.46" width=".73" height="4.47"/><g><path class="cls-1" d="M188.9,59.58l.11,.11,.49-.48c-1.33-1.54-4.13-.64-4.01,1.49-.11,2.11,2.7,3.04,4.01,1.49l-.5-.5c-.82,.97-2.8,.74-2.8-1,0-1.68,1.89-1.92,2.7-1.12"/><path class="cls-1" d="M195.21,57.4c.71,0,1.35,.29,1.82,.8l.55-.48c-1.9-2.12-5.7-.81-5.54,2.15-.17,2.72,3.47,4.3,5.54,2.08l-.53-.5c-1.67,1.74-4.38,.47-4.25-1.6-.02-1.45,.96-2.48,2.42-2.46"/></g><rect class="cls-1" x="197.99" y="58.46" width=".73" height="4.47"/><g><path class="cls-1" d="M197.88,57.28c0,.64,.97,.64,.98,0,0-.64-.98-.64-.98,0"/><path class="cls-1" d="M202.02,62.14c-.61,.28-1.24,.25-1.17-.65v-2.36h1.41v-.66h-1.41v-1.26l-.72,.07v1.19h-.88v.66h.88v2.36c-.08,1.47,1.23,1.82,2.3,1.2l-.26-.62-.15,.07Z"/></g><rect class="cls-1" x="202.88" y="58.46" width=".72" height="4.47"/><g><path class="cls-1" d="M202.76,57.28c0,.64,.97,.64,.97,0,0-.64-.97-.64-.97,0"/><path class="cls-1" d="M204.34,59.16h2.35c-.06,.08-2.43,3.34-2.49,3.42v.35h3.57v-.7h-2.47c.05-.08,2.41-3.3,2.47-3.39v-.36h-3.43v.68Z"/><path class="cls-1" d="M208.83,60.38c.21-1.69,2.94-1.7,3.02,0h-3.02Zm1.51-1.97c-1.29,0-2.26,.99-2.26,2.29-.12,2.35,3.07,3.06,4.26,1.31l-.54-.43c-.65,1.01-2.72,.98-2.97-.53h3.69c.23-1.5-.66-2.66-2.18-2.64"/><path class="cls-1" d="M215.32,58.4c-.53,0-.99,.19-1.32,.51v-.44h-.72v4.46h.72v-2.46c0-.78,.56-1.36,1.32-1.36,.81,0,1.3,.46,1.29,1.28v2.54h.72v-2.54c0-1.21-.8-1.99-2.03-1.99"/><path class="cls-1" d="M219.94,60.33c-.54-.09-1.23-.21-1.22-.62,.03-.48,.53-.58,1.06-.6,.5,0,.95,.11,1.33,.5l.46-.49c-.84-1.01-3.53-1.04-3.57,.61,.01,.98,.97,1.14,1.74,1.27,.74,.12,1.23,.23,1.22,.66-.02,.58-.8,.64-1.14,.64-.67,0-1.2-.29-1.49-.78l-.53,.47c.59,1.37,3.91,1.4,3.87-.29,.05-1.06-1.03-1.24-1.75-1.36"/><path class="cls-1" d="M224.33,58.42c-.54,0-1,.19-1.33,.52v-2.19h-.71v6.18h.73v-2.43c0-.8,.55-1.38,1.32-1.38s1.17,.43,1.17,1.28v2.53h.72v-2.53c0-1.24-.71-1.98-1.89-1.98"/><path class="cls-1" d="M226.86,57.28c0,.64,.97,.64,.98,0,0-.64-.98-.64-.98,0"/></g><rect class="cls-1" x="226.98" y="58.46" width=".73" height="4.47"/><path class="cls-1" d="M230.82,62.3c-2.01,.02-2.01-3.19,0-3.17,2.06-.1,2.04,3.28,0,3.17m.09-3.88c-.66,0-1.24,.25-1.64,.7v-.64h-.72v6.18h.71v-2.33c1.32,1.46,3.96,.43,3.81-1.62,0-1.32-.87-2.24-2.17-2.28"/><polygon class="cls-1" points="236.91 60.18 240.35 60.18 240.35 59.46 236.91 59.46 236.91 57.49 240.52 57.49 240.52 56.75 236.16 56.75 236.16 62.93 240.62 62.93 240.62 62.18 236.91 62.18 236.91 60.18"/><g><path class="cls-1" d="M243.25,62.28c-2.05,.11-2.04-3.26,0-3.16,2.02-.04,2.03,3.22,0,3.16m1.54-3.24c-1.32-1.36-3.95-.39-3.8,1.66-.14,2.07,2.46,3.04,3.8,1.64v.59h.71v-6.18h-.71v2.29Z"/><path class="cls-1" d="M249.62,60.93c.07,1.22-1.5,1.76-2.28,1.01-.57-.4-.26-2.68-.33-3.48h-.73v2.54c-.14,1.75,2.15,2.6,3.35,1.47v.45h.71v-4.46h-.72v2.46Z"/><path class="cls-1" d="M254.28,59.58l.11,.11,.49-.48c-1.33-1.54-4.13-.64-4.02,1.49-.1,2.11,2.7,3.04,4.01,1.49l-.5-.5c-.82,.97-2.79,.74-2.8-1,0-1.68,1.9-1.92,2.7-1.12"/><path class="cls-1" d="M257.37,62.28c-2.02,.04-2.03-3.19,0-3.15,2.1,.02,2.1,3.13,0,3.15m1.54-3.23c-1.31-1.39-3.9-.32-3.8,1.65-.1,1.98,2.47,3.06,3.8,1.65v.58h.72v-4.45h-.72v.58Z"/><path class="cls-1" d="M262.69,62.14c-.61,.28-1.23,.25-1.17-.65v-2.36h1.41v-.66h-1.41v-1.26l-.72,.07v1.19h-.87v.66h.87v2.36c-.08,1.47,1.23,1.82,2.3,1.2l-.26-.62-.15,.07Z"/><path class="cls-1" d="M263.44,57.28c0,.64,.97,.64,.98,0,0-.64-.98-.64-.98,0"/></g><rect class="cls-1" x="263.56" y="58.46" width=".73" height="4.47"/><g><path class="cls-1" d="M267.3,62.27c-2.06,.06-2.01-3.22,0-3.17,2.01-.05,2.07,3.23,0,3.17m0-3.87c-2.97-.03-3.02,4.64,0,4.59,3.02,.05,2.97-4.62,0-4.59"/><path class="cls-1" d="M272.22,58.4c-.53,0-.99,.19-1.32,.51v-.44h-.72v4.46h.72v-2.46c0-.78,.56-1.36,1.32-1.36,.81,0,1.3,.46,1.29,1.28v2.54h.72v-2.54c0-1.21-.8-1.99-2.03-1.99"/><path class="cls-1" d="M32.72,60.37c-13.48,0-25.04-10.1-27.02-23.29,5.65,8.35,18.09,10.98,26.41,5.18,8.78,5.93,21.75,3.51,27.65-5.29-1.93,13.25-13.5,23.4-27.03,23.4m-5.27-35.78c-.32-2.54-.08-5.14,.66-7.34,.43-1.19,.99-2.11,1.68-2.76,2.54-2.42,7.08-1.17,8.38,2.19,2.97,6.29,.34,14.99-5.1,19.11-3.06-2.93-5.1-6.99-5.63-11.2m35.3,5.75c-1.33,0-2.45,.98-2.65,2.28-5.31,7.51-15.78,10.33-23.65,5.69,5.65-6.16,7.68-20.96,.94-26.56-2.87-2.26-7.09-2.39-10-.34-8,6.29-5.81,20.64,.8,27.52-7.97,3.98-17.62,.86-22.87-6.36-.6-3.18-5.27-2.79-5.32,.46,0,18.04,14.68,32.72,32.72,32.72s32.71-14.68,32.71-32.72c0-1.48-1.2-2.68-2.69-2.68"/><path class="cls-1" d="M31.9,7.3c4.66-.12,4.66-6.95,0-7.08-4.66,.12-4.66,6.95,0,7.08"/><path class="cls-1" d="M164.47,13.6c0,1.11-.74,1.71-1.87,1.71s-1.92-.6-1.92-1.71,.79-1.76,1.92-1.76,1.87,.65,1.87,1.76m-9.87-9.31h4.22c.21,0,.41,.12,.25,.33-.92,1.21-2.45,2.45-5,3.42l.9,1.92c1.65-.55,3.33-1.46,4.65-2.57,.32,.07,.58,.25,.86,.56,.47,.51,.92,1.02,1.53,1.78l1.62-1.48c-.72-.83-1.07-1.23-1.62-1.8-.25-.24-.6-.41-.99-.47,.58-.71,1.02-1.46,1.23-2.2,.21-.74-.05-1.44-.98-1.44h-1.85c.14-.3,.23-.63,.25-.98,.02-.46-.07-.92-.23-1.36l-2.39,.6c.07,.21,.16,.54,.19,.76,.05,.3,.02,.68-.08,.98h-2.55v1.95Zm10.4,2.02v2.55c0,.46-.14,1.02-.56,1.34-.56-.17-1.18-.28-1.83-.28-2.43,0-4.47,1.35-4.47,3.68s2.04,3.64,4.47,3.64,4.45-1.36,4.45-3.64c0-.97-.35-1.76-.93-2.36,.86-.46,1.42-1.2,1.42-2.46V1.39h-2.55v2.98h-2.3v1.95h2.3Zm-20.08,4.19h2.3v1.04h-2.3v-1.04Zm3.04-6.14c0,1-.77,1.62-1.9,1.62s-1.96-.62-1.96-1.62,.83-1.64,1.96-1.64,1.9,.64,1.9,1.64m2.55,0c0-2.39-2.01-3.54-4.46-3.54s-4.47,1.15-4.47,3.54,2.04,3.5,4.47,3.5,4.46-1.15,4.46-3.5m2.73,4.22h-14.08v1.92h3.33v1.04h-1.85v1.97h7.8c.33,0,.49,.18,.49,.51v2.87h2.4l.21-4c.05-.77-.38-1.35-1.37-1.35h-.51v-1.04h3.59v-1.92Zm-17.37,2.43c.46-2.1,.79-5.38,.81-7.34,.02-1.04-.53-1.58-1.6-1.58h-9.24v1.95h7.71c.35,0,.58,.19,.58,.63-.04,2.32-.25,4.05-.56,6.05l2.31,.28Zm-11.69,1.27v1.97h14.1v-1.97h-5.19V7.85h-2.48v4.43h-1.3V7.85h-2.48v4.43h-2.64Zm-10.68-5.02V3.91h7.88V1.92h-10.44V7.71c0,1.62,.92,2.11,2.62,2.13h1.41v2.43h-5.74v1.95h14.08v-1.95h-5.77v-2.46c1.55-.07,3.1-.28,4.26-.69l-.39-1.81c-1.74,.39-3.77,.58-5.31,.58h-1.97c-.55,0-.63-.23-.63-.62m-17.6,5.91c4.17-2.48,6.41-5.82,6.69-9.17,.11-1.18-.37-1.76-1.37-1.76h-6.63v1.99h4.98c.39,0,.34,.28,.3,.53-.47,2.71-2.43,4.75-5.26,6.6l1.3,1.81ZM107.19,1.57h-2.53V15.77h2.53V1.57Zm-17.9,11.91c0,1.11-.74,1.83-1.87,1.83s-1.92-.72-1.92-1.83,.79-1.88,1.92-1.88,1.87,.77,1.87,1.88m-9.47-9.87h4.7c.39,0,.42,.12,.35,.55-.4,2.18-2.54,3.68-5.12,4.95l1.04,1.88c3.24-1.48,5.56-3.32,6.42-6h2.62v1.51h-3.08v1.93h3.08v.42c0,.39-.11,.86-.41,1.2-.6-.25-1.28-.37-2.01-.37-2.43,0-4.47,1.48-4.47,3.8s2.04,3.77,4.47,3.77,4.45-1.48,4.45-3.77c0-.9-.32-1.67-.83-2.29,.81-.46,1.34-1.2,1.34-2.43V1.39h-2.55v1.64h-2.31c-.04-.88-.46-1.39-1.39-1.39h-6.32v1.97Z"/></g></g></g></svg>