<svg xmlns="http://www.w3.org/2000/svg" viewBox="0 0 38.17 51.22"><defs><style>.cls-1{fill:#d22127;}.cls-2{fill:#fff;}.cls-3{fill:#2e2c2f;}</style></defs><g id="레이어_2" data-name="레이어 2"><g id="Layer_1" data-name="Layer 1"><polygon class="cls-1" points="38.17 6.64 0.51 0 0.51 31.56 32.77 37.24 38.17 6.64"/><polygon class="cls-2" points="25.32 13.22 19.49 22.86 17.5 11.85 15.34 11.46 9.52 21.05 7.56 10.09 4.96 9.63 7.81 24.67 9.91 25.04 15.7 15.62 17.75 26.42 19.89 26.8 25.94 16.98 26.93 22.2 25.08 21.88 23.68 24.14 27.39 24.8 28.09 28.25 30.53 28.68 27.87 13.67 25.32 13.22"/><polygon class="cls-1" points="6.18 40.18 4.83 45.22 4.01 45.22 3.09 42.16 2.16 45.22 1.34 45.22 0 40.18 1.02 40.18 1.8 43.36 2.72 40.18 3.46 40.18 4.38 43.36 5.16 40.18 6.18 40.18"/><polygon class="cls-1" points="9.98 45.22 6.67 45.22 6.67 40.18 9.98 40.18 9.98 41.06 7.65 41.06 7.65 42.24 9.63 42.24 9.63 43.12 7.65 43.12 7.65 44.34 9.98 44.34 9.98 45.22"/><path class="cls-1" d="M14.31,43.77a1.36,1.36,0,0,1-.42,1.06,1.59,1.59,0,0,1-1.12.39h-2.1v-5h2a1.65,1.65,0,0,1,1.14.38,1.32,1.32,0,0,1,.41,1,1.16,1.16,0,0,1-.21.68,1.08,1.08,0,0,1-.41.36,1.19,1.19,0,0,1,.46.36,1.26,1.26,0,0,1,.23.77m-1.05-2.13a.54.54,0,0,0-.18-.42.64.64,0,0,0-.47-.16h-1v1.16h1a.65.65,0,0,0,.48-.16.54.54,0,0,0,.17-.42m.07,2.08a.56.56,0,0,0-.16-.43.62.62,0,0,0-.5-.19h-1v1.24h1a.64.64,0,0,0,.49-.18.6.6,0,0,0,.17-.44"/><path class="cls-1" d="M19.58,45.22h-1l-.3-.89H16.46l-.3.89h-1l1.83-5h.76ZM18,43.5l-.61-1.83-.64,1.83Z"/><polygon class="cls-1" points="25.29 40.18 23.94 45.22 23.12 45.22 22.19 42.16 21.27 45.22 20.45 45.22 19.1 40.18 20.13 40.18 20.91 43.36 21.82 40.18 22.56 40.18 23.48 43.36 24.26 40.18 25.29 40.18"/><path class="cls-1" d="M29.15,45.22h-1l-.29-.89H26l-.31.89h-1l1.83-5h.77ZM27.56,43.5,27,41.67l-.64,1.83Z"/><path class="cls-1" d="M33.2,45.22H32.06l-1-2h-.71v2h-1v-5h2a1.59,1.59,0,0,1,1.2.46A1.45,1.45,0,0,1,33,41.72a1.4,1.4,0,0,1-.27.86,1.37,1.37,0,0,1-.65.46ZM32,41.72a.63.63,0,0,0-.2-.48.72.72,0,0,0-.51-.18h-.93v1.32h.93a.72.72,0,0,0,.51-.18.63.63,0,0,0,.2-.48"/><path class="cls-1" d="M37.23,42.68V43a4.21,4.21,0,0,1-.07.92,1.61,1.61,0,0,1-.44.81,1.43,1.43,0,0,1-.58.36,2.27,2.27,0,0,1-.75.13H33.58v-5h1.81a2.27,2.27,0,0,1,.75.12,1.58,1.58,0,0,1,.58.36,1.67,1.67,0,0,1,.44.8,4.06,4.06,0,0,1,.07.9Zm-1,0a5.92,5.92,0,0,0,0-.87.89.89,0,0,0-.17-.43.79.79,0,0,0-.31-.24,1.06,1.06,0,0,0-.43-.08h-.74v3.28h.74A.9.9,0,0,0,36,44a.92.92,0,0,0,.17-.44,6.67,6.67,0,0,0,0-.91"/><path class="cls-3" d="M11,51.22h-.43l-.85-3.29h0l-.85,3.29H8.42l-1-4h.46l.81,3.29h0l.85-3.29H10l.83,3.29h0l.83-3.29h.44Z"/><path class="cls-3" d="M12.28,51.19v-.4h.87V47.6h-.87v-.4h2.19v.4H13.6v3.19h.87v.4Z"/><path class="cls-3" d="M17.4,51.2l-2-3.24h0v3.23H15v-4h.46l2,3.16h0V47.2h.42v4Z"/><path class="cls-3" d="M20.83,51.2l-2-3.24h0v3.23h-.43v-4h.46l2,3.16h0V47.2h.42v4Z"/><path class="cls-3" d="M21.81,51.19v-4h2.43v.4h-2v1.32h1.6v.4h-1.6v1.47h2v.4Z"/><path class="cls-3" d="M27,51.19l-1.07-1.58h-.75v1.58h-.46v-4h1.37a1.36,1.36,0,0,1,.88.26,1.1,1.1,0,0,1,.43.92,1.14,1.14,0,0,1-1,1.19l1.12,1.62Zm-.07-2.81c0-.53-.4-.79-1-.79h-.79v1.62H26c.63,0,1-.27,1-.83Z"/><path class="cls-1" d="M.24,51.13v-.31l.39-.37C1.56,49.56,2,49.09,2,48.54a.65.65,0,0,0-.72-.71,1.21,1.21,0,0,0-.77.31l-.16-.35a1.61,1.61,0,0,1,1-.37,1,1,0,0,1,1.11,1.06c0,.67-.48,1.22-1.25,2l-.29.27H2.56v.41Z"/><path class="cls-1" d="M3.62,47.94h0L3,48.29l-.1-.38.8-.43H4.1v3.65H3.62Z"/></g></g></svg>